PathFileType	4	(X/Y/Z)	C:/Users/beibeiliu/ov580/test_trc/User3\sequence.22_training_dense_right.trc
DataRate	CameraRate	NumFrames	NumMarkers	Units	OrigDataRate	OrigDataStartFrame	OrigNumFrames
120	120	24	19	mm	120	164	262
Frame#	Time	ThumbCMC			ThumbMCP			ThumbIP			ThumbTip			IndexMCP			IndexPIP			IndexTip			MiddleMCP			MiddlePIP			MiddleTip			RingMCP			RingPIP			RingTip			PinkyMCP			PinkyPIP			PinkyTip			BackHand1			BackHand2			BackHand3	
		X0	Y0	Z0	X1	Y1	Z1	X2	Y2	Z2	X3	Y3	Z3	X4	Y4	Z4	X5	Y5	Z5	X6	Y6	Z6	X7	Y7	Z7	X8	Y8	Z8	X9	Y9	Z9	X10	Y10	Z10	X11	Y11	Z11	X12	Y12	Z12	X13	Y13	Z13	X14	Y14	Z14	X15	Y15	Z15	X16	Y16	Z16	X17	Y17	Z17	X18	Y18	Z18	
163	1.35833	138.442	-28.6087	8.88461	125.053	-22.9591	-22.9371	118.643	-16.7522	-51.0448	121.109	-13.3052	-73.8877	140.066	41.9522	-31.9497	135.469	55.2719	-56.8332	131.71	45.5255	-88.5709	163.325	46.7675	-36.0695	162.985	58.2964	-67.7413	155.026	39.3145	-97.8633	184.792	38.4827	-40.0052	183.348	45.4188	-69.9055	179.051	26.8552	-93.7079	206.157	21.0397	-38.5397	202.726	26.0241	-64.5755	193.769	6.6995	-87.1436	192.044	11.9185	6.07636	199.179	-4.87449	27.3212	161.971	-0.288744	20.6302	
164	1.36667	137.345	-31.6504	6.26894	122.125	-32.5393	-23.8247	114.418	-27.8217	-54.2972	118.946	-28.6949	-74.3072	143.149	30.5505	-40.3288	132.018	42.7848	-70.4782	129.114	34.1707	-95.5259	162.708	36.2796	-48.6552	160.263	42.136	-80.0071	158.755	19.0065	-110.372	183.013	26.2799	-49.1092	182.484	28.4305	-78.8159	178.019	6.14578	-102.453	205.179	9.00809	-42.5533	207.286	9.72244	-70.4433	194.817	-11.1539	-91.8274	191.446	6.79988	1.33494	196.433	-11.1237	27.5505	158.608	-3.56729	16.2826	
165	1.375	133.313	-35.2533	8.43584	118.068	-39.8222	-23.4149	108.468	-38.8637	-55.4147	116.228	-41.539	-77.0538	140.526	17.7619	-47.4761	135.107	29.4372	-79.4048	130.582	20.4102	-103.864	169.058	19.5354	-55.0769	165.791	21.9391	-91.0188	162.838	-1.99472	-117.113	186.462	9.73415	-55.4111	181.711	9.67789	-83.3479	181.017	-16.5895	-105.829	200.521	-5.14872	-49.2595	202.891	-7.95443	-72.2048	196.588	-31.5764	-92.6922	186.975	-2.49337	0.341884	192.929	-14.5342	23.1318	155.848	-6.31158	11.6344	
166	1.38333	128.184	-38.059	4.64308	115.356	-46.8165	-23.2186	105.051	-52.8422	-48.431	110.724	-57.7303	-71.0843	145.168	4.06418	-54.682	139.869	11.2198	-86.4255	133.833	1.2592	-111.257	165.772	4.66574	-63.52	163.867	1.1433	-96.0669	159.649	-28.196	-120.839	184.922	-8.7799	-58.0155	186.847	-16.4763	-88.7043	180.741	-41.4034	-105.062	199.147	-24.5693	-44.8358	204.337	-31.6584	-72.3001	192.697	-51.5323	-86.3444	183.345	-11.7043	-6.21664	187.534	-20.0408	21.4122	152.539	-9.68404	8.86721	
167	1.39167	120.121	-42.286	8.12916	109.264	-54.3886	-18.3815	100.418	-63.5643	-50.2432	105.018	-75.0073	-66.3461	139.63	-10.048	-60.0346	137.868	-7.995	-88.5511	136.536	-24.3237	-117.202	164.145	-14.077	-66.353	165.682	-22.1496	-96.6212	161.962	-55.1802	-119.006	183.99	-28.4793	-59.1003	183.263	-40.8962	-89.6848	179.32	-69.1292	-99.4877	199.646	-42.9963	-44.8133	199.113	-53.3605	-68.4915	190.118	-78.6226	-78.5831	182.161	-22.2209	-7.76797	184.652	-24.4576	23.5037	151.662	-14.5772	5.37774	
168	1.4	114.271	-44.7309	12.0363	105.17	-61.2007	-14.7931	96.4513	-74.2173	-38.3148	98.341	-88.0685	-57.5975	137.411	-28.3655	-60.0177	137.758	-32.6499	-93.795	132.51	-49.1939	-114.677	161.74	-34.4781	-66.0838	161.484	-47.6449	-95.9949	156.259	-82.1739	-109.121	181.995	-48.6689	-58.3874	180.452	-68.8055	-85.8849	168.018	-97.3659	-89.1073	196.497	-62.1866	-45.1558	190.645	-78.0144	-63.8487	181.879	-103.236	-68.3702	179.99	-30.8117	-6.58371	179.105	-28.2221	19.5073	149.121	-21.9918	5.46698	
169	1.40833	111.963	-45.375	13.982	94.9981	-64.7733	-8.03379	85.9942	-81.9884	-28.242	82.9812	-102.091	-46.9228	136.583	-45.8752	-64.7592	130.15	-53.3925	-89.6729	122.561	-73.5509	-107.941	155.74	-54.7084	-65.5416	151.195	-77.4812	-93.3318	141.408	-112.32	-95.483	172.223	-68.0148	-54.7625	168.375	-93.1911	-76.7196	153.587	-121.314	-70.8759	187.598	-80.7725	-40.0069	183.635	-99.529	-52.6016	162.354	-124.047	-49.282	177.545	-41.0266	-9.31234	173.621	-33.8634	22.929	145.404	-28.0082	3.73448	
170	1.41667	109.257	-48.0048	13.5439	86.5562	-67.8944	0.156485	73.6145	-89.3271	-19.9501	74.4602	-108.246	-28.7759	126.588	-60.851	-57.8317	120.502	-74.2095	-83.3789	108.113	-102.536	-98.5591	148.077	-76.2844	-61.4123	135.657	-102.947	-82.3447	122.723	-135.904	-73.204	158.758	-86.2379	-49.6183	153.786	-111.834	-63.3277	136.865	-139.912	-49.1023	174.087	-97.1864	-31.4222	162.711	-122.142	-39.618	143.991	-139.664	-23.1369	170.971	-54.1931	-9.30238	172.518	-39.6283	18.8873	143.775	-34.0796	3.00378	
171	1.425	102.712	-45.993	16.9522	83.8075	-66.5354	9.06729	66.2341	-88.9672	-5.83886	59.1239	-109.297	-12.9914	113.79	-73.2701	-54.4495	103.416	-92.3301	-75.8627	87.0141	-117.253	-81.5073	130.503	-93.6735	-56.867	117.008	-121.654	-67.0133	97.1417	-148.451	-51.441	146.246	-103.408	-39.9123	128.747	-130.74	-47.7377	112.388	-150.103	-25.0931	156.879	-114.265	-24.0964	143.561	-135.044	-23.3805	119.545	-142.846	-1.07391	162.271	-62.8825	-7.6561	170.5	-49.7004	15.7945	137.968	-36.3291	0.142967	
172	1.43333	102.923	-43.4417	20.3964	76.8829	-60.94	17.2484	51.1286	-79.0148	8.83071	43.3086	-102.3	2.95788	98.5555	-78.2143	-45.4888	79.4065	-98.858	-63.3038	60.2704	-122.568	-63.682	109.428	-100.488	-46.4462	86.8727	-126.54	-51.2417	69.7829	-146.659	-29.4433	123.393	-114.301	-31.2637	107.413	-137.523	-31.2709	84.7558	-146.978	-8.28187	140.364	-123.546	-8.69118	117.754	-142.919	-3.68085	96.8716	-136.883	16.5307	153.679	-74.1184	-6.52057	165.178	-57.3689	14.8336	138.77	-43.962	-0.0592763	
173	1.44167	104.996	-37.3056	23.451	75.118	-50.8231	24.1445	45.0645	-62.7515	19.8933	29.8347	-85.1045	19.0457	83.4851	-79.3832	-39.7245	63.6472	-96.9296	-50.6163	40.5059	-115.943	-45.9735	93.309	-105.052	-34.6018	65.307	-122.716	-35.8249	41.868	-134.734	-8.60479	104.363	-115.873	-18.0589	79.644	-133.555	-14.7465	59.0555	-138.343	11.6565	118.77	-126.062	3.46038	94.4649	-137.216	8.71056	73.9402	-129.541	30.5109	143.903	-80.0281	0.0218024	163.425	-64.6486	16.4631	132.613	-45.1334	-1.30868	
174	1.45	107.01	-28.1039	24.9818	72.3464	-38.7708	27.7537	46.6855	-44.8362	29.8026	23.9851	-61.3727	32.2008	73.0827	-73.3074	-31.9568	47.4572	-84.6116	-39.8141	20.0043	-98.1235	-31.4348	78.978	-99.5484	-22.6943	49.8293	-111.347	-21.1027	20.388	-112.969	4.46499	87.6924	-111.359	-6.95645	57.4152	-124.995	2.17584	39.8352	-123.691	26.9095	98.8554	-120.814	13.9979	75.4878	-127.784	23.7772	57.572	-112.905	43.3438	135.415	-83.4987	1.62214	158.155	-71.8024	20.072	132.424	-47.7991	1.65073	
175	1.45833	110.082	-22.5485	25.4909	75.3528	-25.6787	31.7066	46.0743	-27.4938	33.9394	28.9433	-40.9905	39.6775	68.1969	-64.1559	-23.4572	38.9599	-71.4284	-31.3001	8.99677	-74.3535	-21.7968	67.2802	-87.2377	-14.9938	32.1872	-95.5116	-9.38992	12.512	-94.9148	16.0545	73.923	-103	2.06899	45.341	-108.756	10.7157	29.2323	-103.489	32.3073	83.7486	-113.505	22.997	60.5943	-112.613	32.7898	46.2666	-101.647	53.2962	130.226	-84.4467	9.03486	152.108	-70.5887	22.9781	131.346	-49.6983	1.06701	
176	1.46667	117.247	-16.7684	26.1556	82.7748	-13.5676	31.9147	51.4208	-10.6152	34.7109	32.1238	-21.9751	40.8267	65.3282	-55.6155	-19.8626	36.4774	-54.2662	-27.4072	10.3106	-53.3285	-20.2053	60.441	-78.3133	-9.75451	28.7795	-78.6206	-4.38286	6.42436	-72.3022	21.6992	66.0721	-88.608	5.24007	41.1039	-91.5856	12.563	20.0841	-83.0932	39.1981	78.0591	-100.752	28.3466	55.646	-102.401	40.9127	41.1098	-86.9313	58.0181	120.458	-81.1558	12.5199	150.853	-71.8641	25.4355	130.946	-46.5126	5.07732	
177	1.475	126.41	-8.61043	25.184	92.4906	0.488564	31.3178	61.6025	0.759919	31.9005	38.6586	4.02153	38.2783	68.9571	-39.7264	-22.1401	38.3398	-41.7435	-25.8844	13.9964	-35.8576	-20.797	64.9558	-65.3994	-8.28895	28.7744	-59.3508	-6.27788	4.69489	-47.8688	19.8987	66.9823	-79.5867	9.80549	38.4012	-77.7878	14.8791	18.7048	-63.0621	35.4518	76.434	-89.2162	32.3935	52.2	-85.3955	36.4247	36.465	-65.3116	53.0044	124.486	-73.7464	15.0298	150.894	-71.7152	27.9979	137.711	-42.5264	4.08752	
178	1.48333	136.34	-6.7474	23.029	100.461	8.49939	25.8091	73.4952	19.9385	26.5257	49.8609	19.9679	30.8204	79.3107	-29.6013	-23.3652	49.273	-27.5324	-31.3871	21.247	-17.7003	-26.9128	68.4775	-52.2698	-11.9894	36.763	-45.5319	-12.9533	10.1136	-27.2989	12.171	66.3114	-64.0934	4.33663	39.8526	-62.457	11.7021	21.6699	-45.2407	29.7057	76.4364	-74.3343	27.9226	50.9154	-69.8822	32.964	34.7078	-53.8669	48.2453	122.55	-67.6293	15.2127	148.714	-70.6529	28.1949	140.102	-42.1264	5.75394	
179	1.49167	143.858	-2.0175	17.3886	114.75	14.3752	20.7182	90.1495	26.2395	20.7268	64.7038	29.4219	22.9521	84.6066	-25.1501	-30.1206	60.4426	-13.4977	-40.0754	36.3408	-7.60516	-35.2793	76.5161	-43.7567	-17.9699	45.1595	-36.4618	-18.9741	20.1263	-15.3934	-1.68474	71.801	-56.5338	1.62597	43.8689	-44.7755	1.84948	26.3531	-25.4496	20.0084	74.3004	-62.723	22.8439	53.5309	-56.5146	27.0443	35.9826	-37.0372	40.7285	125.94	-64.5771	15.2601	151.777	-67.3756	30.7525	148.527	-39.3434	2.96527	
180	1.5	154.832	-1.04755	14.6052	129.216	21.2054	14.6381	100.339	33.6908	10.0946	76.7739	42.2491	11.7828	100.51	-19.946	-34.4049	71.4216	-10.2501	-48.072	48.9384	4.57396	-49.8915	83.7831	-36.8992	-26.1414	55.3448	-25.0062	-31.0671	30.0867	-4.12714	-15.4645	82.0987	-45.4357	-8.36479	49.6595	-35.7415	-6.31283	35.0304	-16.5214	5.80728	83.5948	-56.2516	17.9378	57.3268	-47.459	19.8051	42.8685	-26.827	31.4589	128.184	-62.3906	9.44612	157.929	-65.8205	28.3874	157.501	-38.6061	0.0941886	
181	1.50833	163.489	1.65416	8.54878	137.411	23.4895	5.35594	114.466	37.7995	1.08335	89.0419	42.4712	0.0833743	113.654	-16.4546	-44.7838	86.1987	-6.75782	-58.9851	64.8716	6.21009	-60.7123	97.3745	-36.6461	-33.2698	67.3434	-23.8072	-42.338	43.0695	3.03426	-32.7357	90.9192	-46.3274	-13.7667	61.4395	-33.3582	-16.9696	46.8261	-8.84672	-9.68632	87.4689	-53.2604	9.77155	65.461	-40.4062	8.71001	51.319	-22.3559	15.3641	141.839	-56.5682	4.42384	163.104	-61.6233	22.5111	165.707	-36.4571	-1.36949	
182	1.51667	175.617	3.56182	3.13265	149.817	22.3833	-0.469206	120.788	38.924	-12.975	96.6932	42.1308	-14.1248	126.196	-18.124	-56.0389	102.186	-10.6623	-69.5538	80.4755	2.04018	-72.372	112.556	-36.8111	-42.9459	83.0151	-28.5219	-53.0416	56.5869	2.08902	-48.2373	105.693	-44.4189	-24.9717	73.7066	-33.8205	-30.494	56.437	-10.108	-19.3337	97.1102	-52.5599	-1.42363	76.1072	-38.8282	-4.02471	61.9351	-20.1552	0.905213	148.938	-57.9861	-2.93422	170.642	-61.8637	23.4305	178.311	-36.9569	-8.14693	
183	1.525	183.649	-0.537975	0.0865146	156.663	20.3031	-9.80163	133.933	35.7625	-22.3455	108.123	39.194	-27.4319	142.961	-25.2004	-58.2329	121.336	-14.8776	-79.741	99.5887	-2.18647	-87.7496	124.358	-43.5036	-49.0432	95.2846	-33.2979	-64.5254	69.8124	-7.40314	-58.9586	113.701	-49.2136	-35.0417	86.7642	-36.2316	-42.1855	70.2443	-13.7954	-35.7646	109.588	-55.228	-5.56696	85.8951	-43.1108	-12.1864	72.6824	-17.4521	-11.0802	160.231	-60.1836	-4.99823	180.333	-61.4755	21.3986	188.116	-37.3376	-11.3028	
184	1.53333	192.448	0.228287	-6.76499	165.203	15.2758	-19.0005	142.895	29.8311	-33.9586	120.239	30.4706	-40.3008	158.634	-28.7458	-67.984	136.529	-23.5739	-89.5462	115.177	-13.0296	-97.7376	138.556	-49.3361	-57.8204	113.687	-42.8872	-71.9365	84.1655	-15.3171	-73.648	130.662	-53.0308	-40.3649	104.018	-43.0917	-54.5052	82.2297	-21.2392	-48.2057	123.454	-56.9978	-15.5744	96.1461	-49.494	-20.7317	82.3008	-26.6316	-19.2344	172.233	-59.3108	-7.01415	189.886	-59.5801	15.8788	198.414	-38.1388	-10.7869	
185	1.54167	202.21	-1.81634	-6.27556	178.174	15.2415	-23.8045	155.713	21.3548	-42.1879	132.664	23.0613	-54.3382	176.769	-37.3441	-73.1404	161.232	-35.0096	-95.5156	133.27	-23.4	-108.526	159.866	-55.9034	-67.3021	132.431	-51.7828	-83.4696	107.735	-29.5603	-87.3226	145.439	-61.7892	-49.6718	123.532	-57.7122	-61.527	101.761	-32.9352	-65.2827	139.186	-63.1216	-23.2888	112.672	-56.301	-35.3562	97.1204	-36.6031	-34.0299	184.227	-62.3852	-10.5087	199.257	-59.0155	21.4879	212.506	-38.6849	-9.34175	
186	1.55	213.932	-3.29347	-8.42712	190.496	9.04305	-33.0469	170.391	11.6759	-56.2276	150.253	11.1094	-69.8587	203.956	-45.5167	-72.6968	188.428	-46.7163	-101.83	164.383	-37.8623	-115.908	187.868	-65.7442	-67.6398	167.43	-66.7474	-92.577	134.296	-44.0956	-102.095	170.382	-73.9121	-53.9552	149.592	-70.361	-71.6689	127.757	-48.7407	-79.1207	155.388	-76.0443	-30.9263	138.046	-68.1085	-48.4495	120.371	-50.1221	-54.178	201.996	-65.1783	-8.07352	210.61	-61.651	21.3197	225.857	-42.2384	-12.1492	
